999
"DXF R12 Output" (www.mydxf.blogspot.com)
 0 
SECTION
 2 
HEADER
 9 
$ACADVER
 1 
AC1009
 9 
$EXTMIN
 10 
 0 
 20 
 0 
 9 
$EXTMAX
 10 
 8.5 
 20 
 11 
 0 
ENDSEC
 0 
SECTION
 2 
ENTITIES
0
POLYLINE
8
Outline
62
7
70
1
10
0.000000
20
0.000000
66
1
0
VERTEX
8
Outline
10
28.500000
20
190.000000
70
0
0
VERTEX
8
Outline
10
28.500000
20
168.000000
70
0
0
VERTEX
8
Outline
10
21.500000
20
168.000000
70
0
0
VERTEX
8
Outline
10
21.500000
20
162.000000
70
0
0
VERTEX
8
Outline
10
28.500000
20
162.000000
70
0
0
VERTEX
8
Outline
10
28.500000
20
106.000000
70
0
0
VERTEX
8
Outline
10
52.000000
20
106.000000
70
0
0
VERTEX
8
Outline
10
52.000000
20
97.000000
70
0
0
VERTEX
8
Outline
10
91.500000
20
97.000000
70
0
0
VERTEX
8
Outline
10
91.500000
20
106.000000
70
0
0
VERTEX
8
Outline
10
148.500000
20
106.000000
70
0
0
VERTEX
8
Outline
10
148.500000
20
97.000000
70
0
0
VERTEX
8
Outline
10
188.000000
20
97.000000
70
0
0
VERTEX
8
Outline
10
188.000000
20
106.000000
70
0
0
VERTEX
8
Outline
10
336.000000
20
106.000000
70
0
0
VERTEX
8
Outline
10
336.000000
20
97.000000
70
0
0
VERTEX
8
Outline
10
375.500000
20
97.000000
70
0
0
VERTEX
8
Outline
10
375.500000
20
106.000000
70
0
0
VERTEX
8
Outline
10
432.500000
20
106.000000
70
0
0
VERTEX
8
Outline
10
432.500000
20
97.000000
70
0
0
VERTEX
8
Outline
10
472.000000
20
97.000000
70
0
0
VERTEX
8
Outline
10
472.000000
20
106.000000
70
0
0
VERTEX
8
Outline
10
495.500000
20
106.000000
70
0
0
VERTEX
8
Outline
10
495.500000
20
162.000000
70
0
0
VERTEX
8
Outline
10
502.500000
20
162.000000
70
0
0
VERTEX
8
Outline
10
502.500000
20
168.000000
70
0
0
VERTEX
8
Outline
10
495.500000
20
168.000000
70
0
0
VERTEX
8
Outline
10
495.500000
20
190.000000
70
0
0
VERTEX
8
Outline
10
377.000000
20
190.000000
70
0
0
VERTEX
8
Outline
10
28.500000
20
190.000000
70
0
0
SEQEND
8
Outline
0
POLYLINE
8
Screws
62
178
70
0
10
0.000000
20
0.000000
66
1
0
VERTEX
8
Screws
10
25.000000
20
166.200000
70
0
0
VERTEX
8
Screws
10
24.333316
20
165.997764
70
0
0
VERTEX
8
Screws
10
23.891345
20
165.459220
70
0
0
VERTEX
8
Screws
10
23.823058
20
164.765892
70
0
0
VERTEX
8
Screws
10
24.151472
20
164.151472
70
0
0
VERTEX
8
Screws
10
24.765892
20
163.823058
70
0
0
VERTEX
8
Screws
10
25.459220
20
163.891345
70
0
0
VERTEX
8
Screws
10
25.997764
20
164.333316
70
0
0
VERTEX
8
Screws
10
26.200000
20
165.000000
70
0
0
VERTEX
8
Screws
10
26.108655
20
165.459220
70
0
0
VERTEX
8
Screws
10
25.848528
20
165.848528
70
0
0
VERTEX
8
Screws
10
25.459220
20
166.108655
70
0
0
VERTEX
8
Screws
10
25.000000
20
166.200000
70
0
0
VERTEX
8
Screws
10
25.000000
20
166.200000
70
0
0
SEQEND
8
Screws
0
POLYLINE
8
Screws
62
178
70
0
10
0.000000
20
0.000000
66
1
0
VERTEX
8
Screws
10
86.250000
20
103.200000
70
0
0
VERTEX
8
Screws
10
85.583316
20
102.997764
70
0
0
VERTEX
8
Screws
10
85.141345
20
102.459220
70
0
0
VERTEX
8
Screws
10
85.073058
20
101.765892
70
0
0
VERTEX
8
Screws
10
85.401472
20
101.151472
70
0
0
VERTEX
8
Screws
10
86.015892
20
100.823058
70
0
0
VERTEX
8
Screws
10
86.709220
20
100.891345
70
0
0
VERTEX
8
Screws
10
87.247764
20
101.333316
70
0
0
VERTEX
8
Screws
10
87.450000
20
102.000000
70
0
0
VERTEX
8
Screws
10
87.358655
20
102.459220
70
0
0
VERTEX
8
Screws
10
87.098528
20
102.848528
70
0
0
VERTEX
8
Screws
10
86.709220
20
103.108655
70
0
0
VERTEX
8
Screws
10
86.250000
20
103.200000
70
0
0
VERTEX
8
Screws
10
86.250000
20
103.200000
70
0
0
SEQEND
8
Screws
0
POLYLINE
8
Screws
62
178
70
0
10
0.000000
20
0.000000
66
1
0
VERTEX
8
Screws
10
499.000000
20
166.200000
70
0
0
VERTEX
8
Screws
10
498.333316
20
165.997764
70
0
0
VERTEX
8
Screws
10
497.891345
20
165.459220
70
0
0
VERTEX
8
Screws
10
497.823058
20
164.765892
70
0
0
VERTEX
8
Screws
10
498.151472
20
164.151472
70
0
0
VERTEX
8
Screws
10
498.765892
20
163.823058
70
0
0
VERTEX
8
Screws
10
499.459220
20
163.891345
70
0
0
VERTEX
8
Screws
10
499.997764
20
164.333316
70
0
0
VERTEX
8
Screws
10
500.200000
20
165.000000
70
0
0
VERTEX
8
Screws
10
500.108655
20
165.459220
70
0
0
VERTEX
8
Screws
10
499.848528
20
165.848528
70
0
0
VERTEX
8
Screws
10
499.459220
20
166.108655
70
0
0
VERTEX
8
Screws
10
499.000000
20
166.200000
70
0
0
VERTEX
8
Screws
10
499.000000
20
166.200000
70
0
0
SEQEND
8
Screws
0
POLYLINE
8
Screws
62
178
70
0
10
0.000000
20
0.000000
66
1
0
VERTEX
8
Screws
10
57.250000
20
103.200000
70
0
0
VERTEX
8
Screws
10
56.583316
20
102.997764
70
0
0
VERTEX
8
Screws
10
56.141345
20
102.459220
70
0
0
VERTEX
8
Screws
10
56.073058
20
101.765892
70
0
0
VERTEX
8
Screws
10
56.401472
20
101.151472
70
0
0
VERTEX
8
Screws
10
57.015892
20
100.823058
70
0
0
VERTEX
8
Screws
10
57.709220
20
100.891345
70
0
0
VERTEX
8
Screws
10
58.247764
20
101.333316
70
0
0
VERTEX
8
Screws
10
58.450000
20
102.000000
70
0
0
VERTEX
8
Screws
10
58.358655
20
102.459220
70
0
0
VERTEX
8
Screws
10
58.098528
20
102.848528
70
0
0
VERTEX
8
Screws
10
57.709220
20
103.108655
70
0
0
VERTEX
8
Screws
10
57.250000
20
103.200000
70
0
0
VERTEX
8
Screws
10
57.250000
20
103.200000
70
0
0
SEQEND
8
Screws
0
POLYLINE
8
Screws
62
178
70
0
10
0.000000
20
0.000000
66
1
0
VERTEX
8
Screws
10
370.250000
20
103.200010
70
0
0
VERTEX
8
Screws
10
369.583316
20
102.997774
70
0
0
VERTEX
8
Screws
10
369.141345
20
102.459230
70
0
0
VERTEX
8
Screws
10
369.073058
20
101.765902
70
0
0
VERTEX
8
Screws
10
369.401472
20
101.151482
70
0
0
VERTEX
8
Screws
10
370.015892
20
100.823068
70
0
0
VERTEX
8
Screws
10
370.709220
20
100.891355
70
0
0
VERTEX
8
Screws
10
371.247764
20
101.333326
70
0
0
VERTEX
8
Screws
10
371.450000
20
102.000010
70
0
0
VERTEX
8
Screws
10
371.358655
20
102.459230
70
0
0
VERTEX
8
Screws
10
371.098528
20
102.848538
70
0
0
VERTEX
8
Screws
10
370.709220
20
103.108665
70
0
0
VERTEX
8
Screws
10
370.250000
20
103.200010
70
0
0
VERTEX
8
Screws
10
370.250000
20
103.200010
70
0
0
SEQEND
8
Screws
0
POLYLINE
8
Screws
62
178
70
0
10
0.000000
20
0.000000
66
1
0
VERTEX
8
Screws
10
341.250000
20
103.200010
70
0
0
VERTEX
8
Screws
10
340.583316
20
102.997774
70
0
0
VERTEX
8
Screws
10
340.141345
20
102.459230
70
0
0
VERTEX
8
Screws
10
340.073058
20
101.765902
70
0
0
VERTEX
8
Screws
10
340.401472
20
101.151482
70
0
0
VERTEX
8
Screws
10
341.015892
20
100.823068
70
0
0
VERTEX
8
Screws
10
341.709220
20
100.891355
70
0
0
VERTEX
8
Screws
10
342.247764
20
101.333326
70
0
0
VERTEX
8
Screws
10
342.450000
20
102.000010
70
0
0
VERTEX
8
Screws
10
342.358655
20
102.459230
70
0
0
VERTEX
8
Screws
10
342.098528
20
102.848538
70
0
0
VERTEX
8
Screws
10
341.709220
20
103.108665
70
0
0
VERTEX
8
Screws
10
341.250000
20
103.200010
70
0
0
VERTEX
8
Screws
10
341.250000
20
103.200010
70
0
0
SEQEND
8
Screws
0
POLYLINE
8
Screws
62
178
70
0
10
0.000000
20
0.000000
66
1
0
VERTEX
8
Screws
10
466.750030
20
103.200000
70
0
0
VERTEX
8
Screws
10
466.083346
20
102.997764
70
0
0
VERTEX
8
Screws
10
465.641375
20
102.459220
70
0
0
VERTEX
8
Screws
10
465.573088
20
101.765892
70
0
0
VERTEX
8
Screws
10
465.901502
20
101.151472
70
0
0
VERTEX
8
Screws
10
466.515922
20
100.823058
70
0
0
VERTEX
8
Screws
10
467.209250
20
100.891345
70
0
0
VERTEX
8
Screws
10
467.747794
20
101.333316
70
0
0
VERTEX
8
Screws
10
467.950030
20
102.000000
70
0
0
VERTEX
8
Screws
10
467.858685
20
102.459220
70
0
0
VERTEX
8
Screws
10
467.598558
20
102.848528
70
0
0
VERTEX
8
Screws
10
467.209250
20
103.108655
70
0
0
VERTEX
8
Screws
10
466.750030
20
103.200000
70
0
0
VERTEX
8
Screws
10
466.750030
20
103.200000
70
0
0
SEQEND
8
Screws
0
POLYLINE
8
Screws
62
178
70
0
10
0.000000
20
0.000000
66
1
0
VERTEX
8
Screws
10
437.750030
20
103.200000
70
0
0
VERTEX
8
Screws
10
437.083346
20
102.997764
70
0
0
VERTEX
8
Screws
10
436.641375
20
102.459220
70
0
0
VERTEX
8
Screws
10
436.573088
20
101.765892
70
0
0
VERTEX
8
Screws
10
436.901502
20
101.151472
70
0
0
VERTEX
8
Screws
10
437.515922
20
100.823058
70
0
0
VERTEX
8
Screws
10
438.209250
20
100.891345
70
0
0
VERTEX
8
Screws
10
438.747794
20
101.333316
70
0
0
VERTEX
8
Screws
10
438.950030
20
102.000000
70
0
0
VERTEX
8
Screws
10
438.855728
20
102.467094
70
0
0
VERTEX
8
Screws
10
438.598558
20
102.848528
70
0
0
VERTEX
8
Screws
10
438.217124
20
103.105698
70
0
0
VERTEX
8
Screws
10
437.750030
20
103.200000
70
0
0
VERTEX
8
Screws
10
437.750030
20
103.200000
70
0
0
SEQEND
8
Screws
0
POLYLINE
8
Screws
62
178
70
0
10
0.000000
20
0.000000
66
1
0
VERTEX
8
Screws
10
182.750000
20
103.200000
70
0
0
VERTEX
8
Screws
10
182.083316
20
102.997764
70
0
0
VERTEX
8
Screws
10
181.641345
20
102.459220
70
0
0
VERTEX
8
Screws
10
181.573058
20
101.765892
70
0
0
VERTEX
8
Screws
10
181.901472
20
101.151472
70
0
0
VERTEX
8
Screws
10
182.515892
20
100.823058
70
0
0
VERTEX
8
Screws
10
183.209220
20
100.891345
70
0
0
VERTEX
8
Screws
10
183.747764
20
101.333316
70
0
0
VERTEX
8
Screws
10
183.950000
20
102.000000
70
0
0
VERTEX
8
Screws
10
183.858655
20
102.459220
70
0
0
VERTEX
8
Screws
10
183.598528
20
102.848528
70
0
0
VERTEX
8
Screws
10
183.209220
20
103.108655
70
0
0
VERTEX
8
Screws
10
182.750000
20
103.200000
70
0
0
VERTEX
8
Screws
10
182.750000
20
103.200000
70
0
0
SEQEND
8
Screws
0
POLYLINE
8
Screws
62
178
70
0
10
0.000000
20
0.000000
66
1
0
VERTEX
8
Screws
10
153.750000
20
103.200000
70
0
0
VERTEX
8
Screws
10
153.083316
20
102.997764
70
0
0
VERTEX
8
Screws
10
152.641345
20
102.459220
70
0
0
VERTEX
8
Screws
10
152.573058
20
101.765892
70
0
0
VERTEX
8
Screws
10
152.901472
20
101.151472
70
0
0
VERTEX
8
Screws
10
153.515892
20
100.823058
70
0
0
VERTEX
8
Screws
10
154.209220
20
100.891345
70
0
0
VERTEX
8
Screws
10
154.747764
20
101.333316
70
0
0
VERTEX
8
Screws
10
154.950000
20
102.000000
70
0
0
VERTEX
8
Screws
10
154.858655
20
102.459220
70
0
0
VERTEX
8
Screws
10
154.598528
20
102.848528
70
0
0
VERTEX
8
Screws
10
154.209220
20
103.108655
70
0
0
VERTEX
8
Screws
10
153.750000
20
103.200000
70
0
0
VERTEX
8
Screws
10
153.750000
20
103.200000
70
0
0
SEQEND
8
Screws
0
POLYLINE
8
Splitter
62
10
70
1
10
0.000000
20
0.000000
66
1
0
VERTEX
8
Splitter
10
87.010000
20
117.000005
70
0
0
VERTEX
8
Splitter
10
87.010000
20
187.163636
70
0
0
VERTEX
8
Splitter
10
86.010000
20
190.000000
70
0
0
VERTEX
8
Splitter
10
86.000000
20
190.000000
70
0
0
VERTEX
8
Splitter
10
87.000000
20
187.163636
70
0
0
VERTEX
8
Splitter
10
87.000000
20
117.000005
70
0
0
VERTEX
8
Splitter
10
87.010000
20
117.000005
70
0
0
SEQEND
8
Splitter
0
POLYLINE
8
Splitter
62
10
70
1
10
0.000000
20
0.000000
66
1
0
VERTEX
8
Splitter
10
89.990000
20
190.000000
70
0
0
VERTEX
8
Splitter
10
88.990000
20
187.163636
70
0
0
VERTEX
8
Splitter
10
88.990000
20
117.000005
70
0
0
VERTEX
8
Splitter
10
89.000000
20
117.000005
70
0
0
VERTEX
8
Splitter
10
89.000000
20
187.163636
70
0
0
VERTEX
8
Splitter
10
90.000000
20
190.000000
70
0
0
VERTEX
8
Splitter
10
89.990000
20
190.000000
70
0
0
SEQEND
8
Splitter
0
POLYLINE
8
Splitter
62
10
70
1
10
0.000000
20
0.000000
66
1
0
VERTEX
8
Splitter
10
58.010000
20
117.000005
70
0
0
VERTEX
8
Splitter
10
58.010000
20
187.163636
70
0
0
VERTEX
8
Splitter
10
57.010000
20
190.000000
70
0
0
VERTEX
8
Splitter
10
57.000000
20
190.000000
70
0
0
VERTEX
8
Splitter
10
58.000000
20
187.163636
70
0
0
VERTEX
8
Splitter
10
58.000000
20
117.000005
70
0
0
VERTEX
8
Splitter
10
58.010000
20
117.000005
70
0
0
SEQEND
8
Splitter
0
POLYLINE
8
Splitter
62
10
70
1
10
0.000000
20
0.000000
66
1
0
VERTEX
8
Splitter
10
60.990000
20
190.000000
70
0
0
VERTEX
8
Splitter
10
59.990000
20
187.163636
70
0
0
VERTEX
8
Splitter
10
59.990000
20
117.000005
70
0
0
VERTEX
8
Splitter
10
60.000000
20
117.000005
70
0
0
VERTEX
8
Splitter
10
60.000000
20
187.163636
70
0
0
VERTEX
8
Splitter
10
61.000000
20
190.000000
70
0
0
VERTEX
8
Splitter
10
60.990000
20
190.000000
70
0
0
SEQEND
8
Splitter
0
POLYLINE
8
Splitter
62
10
70
1
10
0.000000
20
0.000000
66
1
0
VERTEX
8
Splitter
10
116.010000
20
117.000005
70
0
0
VERTEX
8
Splitter
10
116.010000
20
187.163636
70
0
0
VERTEX
8
Splitter
10
115.010000
20
190.000000
70
0
0
VERTEX
8
Splitter
10
115.000000
20
190.000000
70
0
0
VERTEX
8
Splitter
10
116.000000
20
187.163636
70
0
0
VERTEX
8
Splitter
10
116.000000
20
117.000005
70
0
0
VERTEX
8
Splitter
10
116.010000
20
117.000005
70
0
0
SEQEND
8
Splitter
0
POLYLINE
8
Splitter
62
10
70
1
10
0.000000
20
0.000000
66
1
0
VERTEX
8
Splitter
10
118.990000
20
190.000000
70
0
0
VERTEX
8
Splitter
10
117.990000
20
187.163636
70
0
0
VERTEX
8
Splitter
10
117.990000
20
117.000005
70
0
0
VERTEX
8
Splitter
10
118.000000
20
117.000005
70
0
0
VERTEX
8
Splitter
10
118.000000
20
187.163636
70
0
0
VERTEX
8
Splitter
10
119.000000
20
190.000000
70
0
0
VERTEX
8
Splitter
10
118.990000
20
190.000000
70
0
0
SEQEND
8
Splitter
0
POLYLINE
8
Splitter
62
10
70
1
10
0.000000
20
0.000000
66
1
0
VERTEX
8
Splitter
10
145.010000
20
117.000005
70
0
0
VERTEX
8
Splitter
10
145.010000
20
187.163636
70
0
0
VERTEX
8
Splitter
10
144.010000
20
190.000000
70
0
0
VERTEX
8
Splitter
10
144.000000
20
190.000000
70
0
0
VERTEX
8
Splitter
10
145.000000
20
187.163636
70
0
0
VERTEX
8
Splitter
10
145.000000
20
117.000005
70
0
0
VERTEX
8
Splitter
10
145.010000
20
117.000005
70
0
0
SEQEND
8
Splitter
0
POLYLINE
8
Splitter
62
10
70
1
10
0.000000
20
0.000000
66
1
0
VERTEX
8
Splitter
10
147.990000
20
190.000000
70
0
0
VERTEX
8
Splitter
10
146.990000
20
187.163636
70
0
0
VERTEX
8
Splitter
10
146.990000
20
117.000005
70
0
0
VERTEX
8
Splitter
10
147.000000
20
117.000005
70
0
0
VERTEX
8
Splitter
10
147.000000
20
187.163636
70
0
0
VERTEX
8
Splitter
10
148.000000
20
190.000000
70
0
0
VERTEX
8
Splitter
10
147.990000
20
190.000000
70
0
0
SEQEND
8
Splitter
0
POLYLINE
8
Splitter
62
10
70
1
10
0.000000
20
0.000000
66
1
0
VERTEX
8
Splitter
10
174.010000
20
117.000005
70
0
0
VERTEX
8
Splitter
10
174.010000
20
187.163636
70
0
0
VERTEX
8
Splitter
10
173.010000
20
190.000000
70
0
0
VERTEX
8
Splitter
10
173.000000
20
190.000000
70
0
0
VERTEX
8
Splitter
10
174.000000
20
187.163636
70
0
0
VERTEX
8
Splitter
10
174.000000
20
117.000005
70
0
0
VERTEX
8
Splitter
10
174.010000
20
117.000005
70
0
0
SEQEND
8
Splitter
0
POLYLINE
8
Splitter
62
10
70
1
10
0.000000
20
0.000000
66
1
0
VERTEX
8
Splitter
10
176.990000
20
190.000000
70
0
0
VERTEX
8
Splitter
10
175.990000
20
187.163636
70
0
0
VERTEX
8
Splitter
10
175.990000
20
117.000005
70
0
0
VERTEX
8
Splitter
10
176.000000
20
117.000005
70
0
0
VERTEX
8
Splitter
10
176.000000
20
187.163636
70
0
0
VERTEX
8
Splitter
10
177.000000
20
190.000000
70
0
0
VERTEX
8
Splitter
10
176.990000
20
190.000000
70
0
0
SEQEND
8
Splitter
0
POLYLINE
8
Splitter
62
10
70
1
10
0.000000
20
0.000000
66
1
0
VERTEX
8
Splitter
10
203.010000
20
117.000005
70
0
0
VERTEX
8
Splitter
10
203.010000
20
187.163636
70
0
0
VERTEX
8
Splitter
10
202.010000
20
190.000000
70
0
0
VERTEX
8
Splitter
10
202.000000
20
190.000000
70
0
0
VERTEX
8
Splitter
10
203.000000
20
187.163636
70
0
0
VERTEX
8
Splitter
10
203.000000
20
117.000005
70
0
0
VERTEX
8
Splitter
10
203.010000
20
117.000005
70
0
0
SEQEND
8
Splitter
0
POLYLINE
8
Splitter
62
10
70
1
10
0.000000
20
0.000000
66
1
0
VERTEX
8
Splitter
10
205.990000
20
190.000000
70
0
0
VERTEX
8
Splitter
10
204.990000
20
187.163636
70
0
0
VERTEX
8
Splitter
10
204.990000
20
117.000005
70
0
0
VERTEX
8
Splitter
10
205.000000
20
117.000005
70
0
0
VERTEX
8
Splitter
10
205.000000
20
187.163636
70
0
0
VERTEX
8
Splitter
10
206.000000
20
190.000000
70
0
0
VERTEX
8
Splitter
10
205.990000
20
190.000000
70
0
0
SEQEND
8
Splitter
0
POLYLINE
8
Splitter
62
10
70
1
10
0.000000
20
0.000000
66
1
0
VERTEX
8
Splitter
10
232.010000
20
117.000005
70
0
0
VERTEX
8
Splitter
10
232.010000
20
187.163636
70
0
0
VERTEX
8
Splitter
10
231.010000
20
190.000000
70
0
0
VERTEX
8
Splitter
10
231.000000
20
190.000000
70
0
0
VERTEX
8
Splitter
10
232.000000
20
187.163636
70
0
0
VERTEX
8
Splitter
10
232.000000
20
117.000005
70
0
0
VERTEX
8
Splitter
10
232.010000
20
117.000005
70
0
0
SEQEND
8
Splitter
0
POLYLINE
8
Splitter
62
10
70
1
10
0.000000
20
0.000000
66
1
0
VERTEX
8
Splitter
10
234.990000
20
190.000000
70
0
0
VERTEX
8
Splitter
10
233.990000
20
187.163636
70
0
0
VERTEX
8
Splitter
10
233.990000
20
117.000005
70
0
0
VERTEX
8
Splitter
10
234.000000
20
117.000005
70
0
0
VERTEX
8
Splitter
10
234.000000
20
187.163636
70
0
0
VERTEX
8
Splitter
10
235.000000
20
190.000000
70
0
0
VERTEX
8
Splitter
10
234.990000
20
190.000000
70
0
0
SEQEND
8
Splitter
0
POLYLINE
8
Splitter
62
10
70
1
10
0.000000
20
0.000000
66
1
0
VERTEX
8
Splitter
10
261.010000
20
117.000005
70
0
0
VERTEX
8
Splitter
10
261.010000
20
187.163636
70
0
0
VERTEX
8
Splitter
10
260.010000
20
190.000000
70
0
0
VERTEX
8
Splitter
10
260.000000
20
190.000000
70
0
0
VERTEX
8
Splitter
10
261.000000
20
187.163636
70
0
0
VERTEX
8
Splitter
10
261.000000
20
117.000005
70
0
0
VERTEX
8
Splitter
10
261.010000
20
117.000005
70
0
0
SEQEND
8
Splitter
0
POLYLINE
8
Splitter
62
10
70
1
10
0.000000
20
0.000000
66
1
0
VERTEX
8
Splitter
10
263.990000
20
190.000000
70
0
0
VERTEX
8
Splitter
10
262.990000
20
187.163636
70
0
0
VERTEX
8
Splitter
10
262.990000
20
117.000005
70
0
0
VERTEX
8
Splitter
10
263.000000
20
117.000005
70
0
0
VERTEX
8
Splitter
10
263.000000
20
187.163636
70
0
0
VERTEX
8
Splitter
10
264.000000
20
190.000000
70
0
0
VERTEX
8
Splitter
10
263.990000
20
190.000000
70
0
0
SEQEND
8
Splitter
0
POLYLINE
8
Splitter
62
10
70
1
10
0.000000
20
0.000000
66
1
0
VERTEX
8
Splitter
10
290.010000
20
117.000005
70
0
0
VERTEX
8
Splitter
10
290.010000
20
187.163636
70
0
0
VERTEX
8
Splitter
10
289.010000
20
190.000000
70
0
0
VERTEX
8
Splitter
10
289.000000
20
190.000000
70
0
0
VERTEX
8
Splitter
10
290.000000
20
187.163636
70
0
0
VERTEX
8
Splitter
10
290.000000
20
117.000005
70
0
0
VERTEX
8
Splitter
10
290.010000
20
117.000005
70
0
0
SEQEND
8
Splitter
0
POLYLINE
8
Splitter
62
10
70
1
10
0.000000
20
0.000000
66
1
0
VERTEX
8
Splitter
10
292.990000
20
190.000000
70
0
0
VERTEX
8
Splitter
10
291.990000
20
187.163636
70
0
0
VERTEX
8
Splitter
10
291.990000
20
117.000005
70
0
0
VERTEX
8
Splitter
10
292.000000
20
117.000005
70
0
0
VERTEX
8
Splitter
10
292.000000
20
187.163636
70
0
0
VERTEX
8
Splitter
10
293.000000
20
190.000000
70
0
0
VERTEX
8
Splitter
10
292.990000
20
190.000000
70
0
0
SEQEND
8
Splitter
0
POLYLINE
8
Splitter
62
10
70
1
10
0.000000
20
0.000000
66
1
0
VERTEX
8
Splitter
10
319.010000
20
117.000005
70
0
0
VERTEX
8
Splitter
10
319.010000
20
187.163636
70
0
0
VERTEX
8
Splitter
10
318.010000
20
190.000000
70
0
0
VERTEX
8
Splitter
10
318.000000
20
190.000000
70
0
0
VERTEX
8
Splitter
10
319.000000
20
187.163636
70
0
0
VERTEX
8
Splitter
10
319.000000
20
117.000005
70
0
0
VERTEX
8
Splitter
10
319.010000
20
117.000005
70
0
0
SEQEND
8
Splitter
0
POLYLINE
8
Splitter
62
10
70
1
10
0.000000
20
0.000000
66
1
0
VERTEX
8
Splitter
10
321.990000
20
190.000000
70
0
0
VERTEX
8
Splitter
10
320.990000
20
187.163636
70
0
0
VERTEX
8
Splitter
10
320.990000
20
117.000005
70
0
0
VERTEX
8
Splitter
10
321.000000
20
117.000005
70
0
0
VERTEX
8
Splitter
10
321.000000
20
187.163636
70
0
0
VERTEX
8
Splitter
10
322.000000
20
190.000000
70
0
0
VERTEX
8
Splitter
10
321.990000
20
190.000000
70
0
0
SEQEND
8
Splitter
0
POLYLINE
8
Splitter
62
10
70
1
10
0.000000
20
0.000000
66
1
0
VERTEX
8
Splitter
10
348.010000
20
117.000005
70
0
0
VERTEX
8
Splitter
10
348.010000
20
187.163636
70
0
0
VERTEX
8
Splitter
10
347.010000
20
190.000000
70
0
0
VERTEX
8
Splitter
10
347.000000
20
190.000000
70
0
0
VERTEX
8
Splitter
10
348.000000
20
187.163636
70
0
0
VERTEX
8
Splitter
10
348.000000
20
117.000005
70
0
0
VERTEX
8
Splitter
10
348.010000
20
117.000005
70
0
0
SEQEND
8
Splitter
0
POLYLINE
8
Splitter
62
10
70
1
10
0.000000
20
0.000000
66
1
0
VERTEX
8
Splitter
10
350.990000
20
190.000000
70
0
0
VERTEX
8
Splitter
10
349.990000
20
187.163636
70
0
0
VERTEX
8
Splitter
10
349.990000
20
117.000005
70
0
0
VERTEX
8
Splitter
10
350.000000
20
117.000005
70
0
0
VERTEX
8
Splitter
10
350.000000
20
187.163636
70
0
0
VERTEX
8
Splitter
10
351.000000
20
190.000000
70
0
0
VERTEX
8
Splitter
10
350.990000
20
190.000000
70
0
0
SEQEND
8
Splitter
0
POLYLINE
8
Splitter
62
10
70
1
10
0.000000
20
0.000000
66
1
0
VERTEX
8
Splitter
10
377.010000
20
117.000005
70
0
0
VERTEX
8
Splitter
10
377.010000
20
187.163636
70
0
0
VERTEX
8
Splitter
10
376.010000
20
190.000000
70
0
0
VERTEX
8
Splitter
10
376.000000
20
190.000000
70
0
0
VERTEX
8
Splitter
10
377.000000
20
187.163636
70
0
0
VERTEX
8
Splitter
10
377.000000
20
117.000005
70
0
0
VERTEX
8
Splitter
10
377.010000
20
117.000005
70
0
0
SEQEND
8
Splitter
0
POLYLINE
8
Splitter
62
10
70
1
10
0.000000
20
0.000000
66
1
0
VERTEX
8
Splitter
10
379.990000
20
190.000000
70
0
0
VERTEX
8
Splitter
10
378.990000
20
187.163636
70
0
0
VERTEX
8
Splitter
10
378.990000
20
117.000005
70
0
0
VERTEX
8
Splitter
10
379.000000
20
117.000005
70
0
0
VERTEX
8
Splitter
10
379.000000
20
187.163636
70
0
0
VERTEX
8
Splitter
10
380.000000
20
190.000000
70
0
0
VERTEX
8
Splitter
10
379.990000
20
190.000000
70
0
0
SEQEND
8
Splitter
0
POLYLINE
8
Splitter
62
10
70
1
10
0.000000
20
0.000000
66
1
0
VERTEX
8
Splitter
10
406.010000
20
117.000005
70
0
0
VERTEX
8
Splitter
10
406.010000
20
187.163636
70
0
0
VERTEX
8
Splitter
10
405.010000
20
190.000000
70
0
0
VERTEX
8
Splitter
10
405.000000
20
190.000000
70
0
0
VERTEX
8
Splitter
10
406.000000
20
187.163636
70
0
0
VERTEX
8
Splitter
10
406.000000
20
117.000005
70
0
0
VERTEX
8
Splitter
10
406.010000
20
117.000005
70
0
0
SEQEND
8
Splitter
0
POLYLINE
8
Splitter
62
10
70
1
10
0.000000
20
0.000000
66
1
0
VERTEX
8
Splitter
10
408.990000
20
190.000000
70
0
0
VERTEX
8
Splitter
10
407.990000
20
187.163636
70
0
0
VERTEX
8
Splitter
10
407.990000
20
117.000005
70
0
0
VERTEX
8
Splitter
10
408.000000
20
117.000005
70
0
0
VERTEX
8
Splitter
10
408.000000
20
187.163636
70
0
0
VERTEX
8
Splitter
10
409.000000
20
190.000000
70
0
0
VERTEX
8
Splitter
10
408.990000
20
190.000000
70
0
0
SEQEND
8
Splitter
0
POLYLINE
8
Splitter
62
10
70
1
10
0.000000
20
0.000000
66
1
0
VERTEX
8
Splitter
10
435.010000
20
117.000005
70
0
0
VERTEX
8
Splitter
10
435.010000
20
187.163636
70
0
0
VERTEX
8
Splitter
10
434.010000
20
190.000000
70
0
0
VERTEX
8
Splitter
10
434.000000
20
190.000000
70
0
0
VERTEX
8
Splitter
10
435.000000
20
187.163636
70
0
0
VERTEX
8
Splitter
10
435.000000
20
117.000005
70
0
0
VERTEX
8
Splitter
10
435.010000
20
117.000005
70
0
0
SEQEND
8
Splitter
0
POLYLINE
8
Splitter
62
10
70
1
10
0.000000
20
0.000000
66
1
0
VERTEX
8
Splitter
10
437.990000
20
190.000000
70
0
0
VERTEX
8
Splitter
10
436.990000
20
187.163636
70
0
0
VERTEX
8
Splitter
10
436.990000
20
117.000005
70
0
0
VERTEX
8
Splitter
10
437.000000
20
117.000005
70
0
0
VERTEX
8
Splitter
10
437.000000
20
187.163636
70
0
0
VERTEX
8
Splitter
10
438.000000
20
190.000000
70
0
0
VERTEX
8
Splitter
10
437.990000
20
190.000000
70
0
0
SEQEND
8
Splitter
0
POLYLINE
8
Splitter
62
10
70
1
10
0.000000
20
0.000000
66
1
0
VERTEX
8
Splitter
10
464.010000
20
117.000005
70
0
0
VERTEX
8
Splitter
10
464.010000
20
187.163636
70
0
0
VERTEX
8
Splitter
10
463.010000
20
190.000000
70
0
0
VERTEX
8
Splitter
10
463.000000
20
190.000000
70
0
0
VERTEX
8
Splitter
10
464.000000
20
187.163636
70
0
0
VERTEX
8
Splitter
10
464.000000
20
117.000005
70
0
0
VERTEX
8
Splitter
10
464.010000
20
117.000005
70
0
0
SEQEND
8
Splitter
0
POLYLINE
8
Splitter
62
10
70
1
10
0.000000
20
0.000000
66
1
0
VERTEX
8
Splitter
10
466.990000
20
190.000000
70
0
0
VERTEX
8
Splitter
10
465.990000
20
187.163636
70
0
0
VERTEX
8
Splitter
10
465.990000
20
117.000005
70
0
0
VERTEX
8
Splitter
10
466.000000
20
117.000005
70
0
0
VERTEX
8
Splitter
10
466.000000
20
187.163636
70
0
0
VERTEX
8
Splitter
10
467.000000
20
190.000000
70
0
0
VERTEX
8
Splitter
10
466.990000
20
190.000000
70
0
0
SEQEND
8
Splitter
 0 
ENDSEC
 0 
EOF